<svg xmlns="http://www.w3.org/2000/svg" width="20.715" height="26.582" viewBox="0 0 20.715 26.582">
  <g id="Group_3415" data-name="Group 3415" transform="translate(-47 -39)">
    <path id="Path_1651" data-name="Path 1651" d="M1.815-1h10.9l7.005,7.005V22.767A2.818,2.818,0,0,1,16.9,25.582H1.815A2.818,2.818,0,0,1-1,22.767V1.815A2.818,2.818,0,0,1,1.815-1Zm9.757,2.277H1.815a.538.538,0,0,0-.538.538V22.767a.538.538,0,0,0,.538.538H16.9a.538.538,0,0,0,.538-.538V7.144H12.71a1.139,1.139,0,0,1-1.139-1.139Z" transform="translate(48 40)" fill="#dc5d35"/>
    <path id="Line_13" data-name="Line 13" d="M5.462,1.277H.139A1.139,1.139,0,0,1,.139-1H5.462a1.139,1.139,0,1,1,0,2.277Z" transform="translate(51.362 49.246)" fill="#dc5d35"/>
    <path id="Line_14" data-name="Line 14" d="M11.906,1.277H.139A1.139,1.139,0,1,1,.139-1H11.906a1.139,1.139,0,0,1,0,2.277Z" transform="translate(51.362 53.169)" fill="#dc5d35"/>
    <path id="Line_15" data-name="Line 15" d="M11.906,1.277H.139A1.139,1.139,0,1,1,.139-1H11.906a1.139,1.139,0,0,1,0,2.277Z" transform="translate(51.362 56.811)" fill="#dc5d35"/>
    <path id="Line_16" data-name="Line 16" d="M11.906,1.277H.139A1.139,1.139,0,1,1,.139-1H11.906a1.139,1.139,0,0,1,0,2.277Z" transform="translate(51.362 60.454)" fill="#dc5d35"/>
  </g>
</svg>
