<svg xmlns="http://www.w3.org/2000/svg" width="12.605" height="12.607" viewBox="0 0 12.605 12.607">
  <path id="Icon_awesome-check-double" data-name="Icon awesome-check-double" d="M12.43,4.3l-.975-.975a.588.588,0,0,0-.835,0l-5.9,5.9L1.982,6.478a.588.588,0,0,0-.835,0L.17,7.456a.591.591,0,0,0,0,.837l4.136,4.138a.588.588,0,0,0,.835,0l7.287-7.292A.594.594,0,0,0,12.43,4.3ZM4.446,6.912a.391.391,0,0,0,.556,0l5.121-5.126a.4.4,0,0,0,0-.556L9.011.115a.391.391,0,0,0-.556,0l-3.73,3.73L3.361,2.478a.391.391,0,0,0-.556,0L1.689,3.593a.4.4,0,0,0,0,.556Z" transform="translate(0.004 0.002)" fill="#54a170"/>
</svg>
