<svg xmlns="http://www.w3.org/2000/svg" width="21.25" height="21.25" viewBox="0 0 21.25 21.25">
  <g id="Icon_ionic-ios-chatbubbles" data-name="Icon ionic-ios-chatbubbles" transform="translate(-3.375 -3.375)">
    <path id="Path_1651" data-name="Path 1651" d="M24.253,17.3a1.238,1.238,0,0,1,.169-.623,1.721,1.721,0,0,1,.107-.158,8.277,8.277,0,0,0,1.41-4.613,8.689,8.689,0,0,0-8.873-8.531,8.812,8.812,0,0,0-8.7,6.789,8.209,8.209,0,0,0-.189,1.747,8.665,8.665,0,0,0,8.735,8.638,10.52,10.52,0,0,0,2.411-.393c.577-.158,1.149-.368,1.3-.424a1.35,1.35,0,0,1,.475-.087,1.328,1.328,0,0,1,.516.1l2.9,1.027a.691.691,0,0,0,.2.051.407.407,0,0,0,.409-.409.656.656,0,0,0-.026-.138Z" transform="translate(-1.313)" fill="#fff"/>
    <path id="Path_1652" data-name="Path 1652" d="M17.193,23.578c-.184.051-.419.107-.674.163a9.428,9.428,0,0,1-1.737.23,8.665,8.665,0,0,1-8.735-8.638,9.658,9.658,0,0,1,.077-1.093c.031-.22.066-.439.117-.654.051-.23.112-.46.179-.684l-.409.363a7.6,7.6,0,0,0-2.636,5.716A7.517,7.517,0,0,0,4.642,23.17c.117.179.184.317.163.409S4.2,26.745,4.2,26.745a.41.41,0,0,0,.138.393.416.416,0,0,0,.261.092.366.366,0,0,0,.148-.031L7.61,26.071a.8.8,0,0,1,.291-.056.806.806,0,0,1,.322.066,8.6,8.6,0,0,0,3.1.613,8.023,8.023,0,0,0,6.135-2.815s.163-.225.352-.49C17.622,23.456,17.407,23.522,17.193,23.578Z" transform="translate(0 -2.606)" fill="#fff"/>
  </g>
</svg>
