<svg xmlns="http://www.w3.org/2000/svg" width="24.557" height="24.557" viewBox="0 0 24.557 24.557">
  <g id="Group_3434" data-name="Group 3434" transform="translate(-204.159 -172.159)">
    <path id="Icon_awesome-history" data-name="Icon awesome-history" d="M25.119,12.818A12.279,12.279,0,0,1,5.135,22.4a1.187,1.187,0,0,1-.091-1.763L5.6,20.08a1.19,1.19,0,0,1,1.579-.1A9.11,9.11,0,1,0,6.6,6.2L9.112,8.716a.792.792,0,0,1-.56,1.352h-7.2a.792.792,0,0,1-.792-.792v-7.2a.792.792,0,0,1,1.352-.56L4.359,3.963a12.278,12.278,0,0,1,20.76,8.855Z" transform="translate(203.597 171.597)" fill="#dc5d35"/>
    <path id="Icon_awesome-rupee-sign" data-name="Icon awesome-rupee-sign" d="M6.353,3.57A.248.248,0,0,0,6.6,3.323V2.5a.248.248,0,0,0-.248-.248H.248A.248.248,0,0,0,0,2.5V3.42a.248.248,0,0,0,.248.248H2.006a1.488,1.488,0,0,1,1.258.562H.248A.248.248,0,0,0,0,4.478V5.3a.248.248,0,0,0,.248.248H3.522A1.425,1.425,0,0,1,1.98,6.759H.248A.248.248,0,0,0,0,7.007V8.1a.248.248,0,0,0,.08.182l3.4,3.142a.248.248,0,0,0,.168.066h1.7a.248.248,0,0,0,.168-.429L2.411,8.188A2.826,2.826,0,0,0,5.263,5.55H6.353A.248.248,0,0,0,6.6,5.3V4.478a.248.248,0,0,0-.248-.248H5.142a2.825,2.825,0,0,0-.294-.66Z" transform="translate(213.25 178.5)" fill="#dc5d35"/>
  </g>
</svg>
