<svg id="Group_4125" data-name="Group 4125" xmlns="http://www.w3.org/2000/svg" xmlns:xlink="http://www.w3.org/1999/xlink" width="21.881" height="23.462" viewBox="0 0 21.881 23.462">
  <defs>
    <clipPath id="clip-path">
      <rect id="Rectangle_881" data-name="Rectangle 881" width="21.881" height="23.462" fill="none"/>
    </clipPath>
  </defs>
  <g id="Group_4122" data-name="Group 4122" clip-path="url(#clip-path)">
    <path id="Path_1673" data-name="Path 1673" d="M135.79,0h.874a.79.79,0,0,1,.79.79V2.454H135V.79a.79.79,0,0,1,.79-.79" transform="translate(-129.384)" fill="#fff"/>
    <path id="Path_1674" data-name="Path 1674" d="M347.79,0h.874a.79.79,0,0,1,.79.79V2.454H347V.79a.79.79,0,0,1,.79-.79" transform="translate(-332.565)" fill="#fff"/>
    <path id="Path_1675" data-name="Path 1675" d="M0,255.816a2.454,2.454,0,0,0,2.454,2.454H19.428a2.454,2.454,0,0,0,2.454-2.454V245H0Zm15.4-5.271c.308.518.613,1.038.911,1.563a.468.468,0,0,1-.416.742c-.458.016-.447.02-.619.455a4.659,4.659,0,0,1-3.217,2.913,5.322,5.322,0,0,1-1.128.165A4.814,4.814,0,0,1,7.684,255.1a.492.492,0,1,1,.657-.713A3.716,3.716,0,0,0,14,253.709a3.977,3.977,0,0,0,.333-.669c.058-.143.01-.193-.132-.19-.069,0-.139,0-.208,0a.465.465,0,0,1-.41-.7q.457-.827.957-1.632a.474.474,0,0,1,.858.026m-9.51-.016c.389.027.5-.134.636-.476a4.485,4.485,0,0,1,3.361-2.923,4.505,4.505,0,0,1,4.224,1.169.521.521,0,0,1,.188.291.46.46,0,0,1-.187.495.453.453,0,0,1-.546.007c-.152-.107-.284-.243-.433-.355a3.736,3.736,0,0,0-2.4-.76,3.647,3.647,0,0,0-3.257,2.285c-.09.232-.079.256.161.252a.553.553,0,0,1,.567.267.6.6,0,0,1-.091.608c-.282.477-.566.952-.846,1.431a.481.481,0,0,1-.869.024q-.479-.778-.929-1.575a.465.465,0,0,1,.419-.741" transform="translate(-0.001 -234.808)" fill="#fff"/>
    <path id="Path_1676" data-name="Path 1676" d="M19.427,59H16.889v3.952a.79.79,0,0,1-.79.79h-.874a.79.79,0,0,1-.79-.79V59H8.07v3.952a.79.79,0,0,1-.79.79H6.406a.79.79,0,0,1-.79-.79V59H2.454A2.454,2.454,0,0,0,0,61.454v3.661H21.881V61.454A2.454,2.454,0,0,0,19.427,59" transform="translate(0 -56.546)" fill="#fff"/>
  </g>
</svg>
