<svg xmlns="http://www.w3.org/2000/svg" width="31.942" height="31.942" viewBox="0 0 31.942 31.942">
  <path id="Icon_awesome-user-circle" data-name="Icon awesome-user-circle" d="M15.971.563A15.971,15.971,0,1,0,31.942,16.533,15.968,15.968,0,0,0,15.971.563Zm0,6.182A5.667,5.667,0,1,1,10.3,12.412,5.667,5.667,0,0,1,15.971,6.745Zm0,22.153a12.341,12.341,0,0,1-9.434-4.392,7.18,7.18,0,0,1,6.343-3.851,1.576,1.576,0,0,1,.457.071,8.526,8.526,0,0,0,2.634.444,8.494,8.494,0,0,0,2.634-.444,1.576,1.576,0,0,1,.457-.071,7.18,7.18,0,0,1,6.343,3.851A12.341,12.341,0,0,1,15.971,28.9Z" transform="translate(0 -0.563)" fill="#ffffff"/>
</svg>
