<svg xmlns="http://www.w3.org/2000/svg" width="28.244" height="26.072" viewBox="0 0 28.244 26.072">
  <g id="Icon_ionic-ios-wallet" data-name="Icon ionic-ios-wallet" transform="translate(-3.375 -4.499)">
    <path id="Path_1630" data-name="Path 1630" d="M27.545,11.25H7.449a4.077,4.077,0,0,0-4.074,4.074V26.73A4.077,4.077,0,0,0,7.449,30.8h20.1a4.077,4.077,0,0,0,4.074-4.074V15.324A4.077,4.077,0,0,0,27.545,11.25Z" transform="translate(0 -0.232)" fill="#fff"/>
    <path id="Path_1631" data-name="Path 1631" d="M23.436,4.568,7.487,7.684C6.265,7.956,4.5,9.185,4.5,10.678a4.278,4.278,0,0,1,3.327-1.29H27.312V8a3.9,3.9,0,0,0-.944-2.553h0A3.211,3.211,0,0,0,23.436,4.568Z" transform="translate(-0.039)" fill="#fff"/>
  </g>
</svg>
